<mxfile host="app.diagrams.net" modified="2020-12-15T10:00:29.924Z" agent="5.0 (Macintosh; Intel Mac OS X 10_14_6) AppleWebKit/537.36 (KHTML, like Gecko) Chrome/87.0.4280.88 Safari/537.36" etag="MUqoQ2nXEMb6NZ_8UOFc" version="14.0.1" type="github">
  <diagram id="SabE69O_kY0EV51uKS09" name="Page-1">
    <mxGraphModel dx="786" dy="771" grid="1" gridSize="10" guides="1" tooltips="1" connect="1" arrows="1" fold="1" page="1" pageScale="1" pageWidth="827" pageHeight="1169" math="0" shadow="0">
      <root>
        <mxCell id="0" />
        <mxCell id="1" parent="0" />
        <mxCell id="2JaW36wv6rv7Cq3j7xDv-1" value="" style="rounded=1;whiteSpace=wrap;html=1;" vertex="1" parent="1">
          <mxGeometry x="60" y="90" width="200" height="530" as="geometry" />
        </mxCell>
        <mxCell id="2JaW36wv6rv7Cq3j7xDv-2" value="应用层" style="rounded=1;whiteSpace=wrap;html=1;" vertex="1" parent="1">
          <mxGeometry x="100" y="140" width="120" height="60" as="geometry" />
        </mxCell>
        <mxCell id="2JaW36wv6rv7Cq3j7xDv-3" value="传输控制层" style="rounded=1;whiteSpace=wrap;html=1;" vertex="1" parent="1">
          <mxGeometry x="100" y="240" width="120" height="60" as="geometry" />
        </mxCell>
        <mxCell id="2JaW36wv6rv7Cq3j7xDv-4" value="网络层" style="rounded=1;whiteSpace=wrap;html=1;" vertex="1" parent="1">
          <mxGeometry x="100" y="340" width="120" height="60" as="geometry" />
        </mxCell>
      </root>
    </mxGraphModel>
  </diagram>
</mxfile>
